<?xml version="1.0" encoding="UTF-8"?>
<svg id="I_C_O_N_S" data-name="I C O N S" xmlns="http://www.w3.org/2000/svg" width="18" height="18" viewBox="0 0 18 18">
  <defs>
    <style>
      .fill {
        fill: #444444;
      }

      .fill, .cls-1 {
        stroke-width: 0px;
      }

      .cls-1 {
        fill: #444444;
      }
    </style>
  </defs>
  <g>
    <g>
      <path class="fill" d="M9.48209,1.30751c-.1067-.03067-.22116-.00039-.30078.07967-1.70571,1.71325-3.33393,2.85705-6.60149,3.90249-.09674.03095-.15533.13574-.12913.23723l.90018,3.48685c.0262.10149.12742.16184.22611.13844,3.33342-.79033,5.26949-.74165,7.57202-.14311.05244.01343.10637.01261.15673-.0014.053-.01474.1023-.04384.14194-.08581.07759-.08209.10768-.20043.07903-.31142l-1.8263-7.07422c-.0285-.11103-.1116-.19806-.21831-.22873Z"/>
      <path class="fill" d="M1.55366,5.60219c-1.09992.21915-1.77325,1.34886-1.48821,2.44273.28499,1.0937,1.41724,1.72591,2.47654,1.35015.09291-.03296.14357-.14128.11813-.2389l-.888-3.40782c-.02544-.09762-.12197-.16539-.21846-.14616Z"/>
      <path class="fill" d="M4.97303,9.94665c-.08782-.12909-.25026-.19299-.40805-.16051l-.70271.14465c-.12415.02608-.22863.10816-.27732.22093-.04877.11248-.0363.24069.03329.34261l1.16839,1.78128c.09173.13465.26387.19774.42657.15619l.71986-.18382c.00026-.00022.00057-.0003.00092-.00023.20746-.05298.3304-.25634.27493-.45362-.014-.04979-1.23588-1.84748-1.23588-1.84748Z"/>
      <g>
        <path class="fill" d="M11.65759,1.83337c-.00043,0-.0013,0-.00174-.00087-.04601-.02604-.09505-.04253-.14583-.05035-.17925-.02604-.35547.06597-.4388.23003-.10503.2066-.02778.46354.17535.5842.74479.44531,1.30339,1.1467,1.57335,1.97483.27127.82812.23351,1.72396-.10547,2.52257-.09245.21875-.00347.47135.20182.57552.0434.0217.08854.03646.13281.04253.02083.00347.04167.00434.0625.00434.16493,0,.31727-.09635.38411-.24913.4349-1.00087.48698-2.12413.1467-3.16406-.33898-1.0408-1.04384-1.91753-1.98481-2.46962Z"/>
        <path class="fill" d="M15.68387,3.61198c-.49349-1.51562-1.52951-2.78038-2.91797-3.56076-.04427-.02431-.09158-.03993-.14149-.04774-.18142-.02257-.35807.06597-.44227.23177-.10547.2092-.02604.46441.18099.58247,1.18663.67187,2.07378,1.76042,2.49783,3.06337.42665,1.30035.352,2.70226-.2105,3.94705-.09809.21701-.01128.47049.19835.57812.0421.0217.08724.03559.13151.04167.02257.00347.0447.00521.06684.00521.16363,0,.31163-.09375.38108-.24566.66146-1.44792.75217-3.07986.25564-4.59549Z"/>
      </g>
    </g>
    <g>
      <path class="cls-1" d="M9.48209,1.30751c-.1067-.03067-.22116-.00039-.30078.07967-1.70571,1.71325-3.33393,2.85705-6.60149,3.90249-.09674.03095-.15533.13574-.12913.23723l.90018,3.48685c.0262.10149.12742.16184.22611.13844,3.33342-.79033,5.26949-.74165,7.57202-.14311.05244.01343.10637.01261.15673-.0014.053-.01474.1023-.04384.14194-.08581.07759-.08209.10768-.20043.07903-.31142l-1.8263-7.07422c-.0285-.11103-.1116-.19806-.21831-.22873Z"/>
      <path class="cls-1" d="M1.55366,5.60219c-1.09992.21915-1.77325,1.34886-1.48821,2.44273.28499,1.0937,1.41724,1.72591,2.47654,1.35015.09291-.03296.14357-.14128.11813-.2389l-.888-3.40782c-.02544-.09762-.12197-.16539-.21846-.14616Z"/>
      <path class="cls-1" d="M4.97303,9.94665c-.08782-.12909-.25026-.19299-.40805-.16051l-.70271.14465c-.12415.02608-.22863.10816-.27732.22093-.04877.11248-.0363.24069.03329.34261l1.16839,1.78128c.09173.13465.26387.19774.42657.15619l.71986-.18382c.00026-.00022.00057-.0003.00092-.00023.20746-.05298.3304-.25634.27493-.45362-.014-.04979-1.23588-1.84748-1.23588-1.84748Z"/>
      <g>
        <path class="cls-1" d="M11.65759,1.83337c-.00043,0-.0013,0-.00174-.00087-.04601-.02604-.09505-.04253-.14583-.05035-.17925-.02604-.35547.06597-.4388.23003-.10503.2066-.02778.46354.17535.5842.74479.44531,1.30339,1.1467,1.57335,1.97483.27127.82812.23351,1.72396-.10547,2.52257-.09245.21875-.00347.47135.20182.57552.0434.0217.08854.03646.13281.04253.02083.00347.04167.00434.0625.00434.16493,0,.31727-.09635.38411-.24913.4349-1.00087.48698-2.12413.1467-3.16406-.33898-1.0408-1.04384-1.91753-1.98481-2.46962Z"/>
        <path class="cls-1" d="M15.68387,3.61198c-.49349-1.51562-1.52951-2.78038-2.91797-3.56076-.04427-.02431-.09158-.03993-.14149-.04774-.18142-.02257-.35807.06597-.44227.23177-.10547.2092-.02604.46441.18099.58247,1.18663.67187,2.07378,1.76042,2.49783,3.06337.42665,1.30035.352,2.70226-.2105,3.94705-.09809.21701-.01128.47049.19835.57812.0421.0217.08724.03559.13151.04167.02257.00347.0447.00521.06684.00521.16363,0,.31163-.09375.38108-.24566.66146-1.44792.75217-3.07986.25564-4.59549Z"/>
      </g>
    </g>
  </g>
  <path class="fill" d="M17.72222,10h-9.44444c-.1534,0-.27778.1194-.27778.26667v7.46667c0,.14728.12438.26667.27778.26667h9.44444c.1534,0,.27778-.11938.27778-.26667v-7.46667c0-.14727-.12438-.26667-.27778-.26667ZM9,11h8v5l-1.31371-1.20016c-.23953-.22995-.62792-.22995-.86745,0l-.94191.90425-2.3175-2.22487c-.2396-.22995-.62798-.22995-.86751,0l-1.69192,1.78426v-4.26348Z"/>
  <path class="fill" d="M15.33541,13.37933c.47519,0,.86043-.36981.86043-.82599s-.38523-.82601-.86043-.82601-.86039.36982-.86039.82601.3852.82599.86039.82599Z"/>
</svg>