<svg xmlns="http://www.w3.org/2000/svg" viewBox="0 0 18 18" width="18" height="18">
  <defs>
    <style>
      .fill {
        fill: #222222;
      }
    </style>
  </defs>
<path class="st0" d="M16,1h-5.1c-0.4,0-0.8,0.4-0.8,0.9V7c0,0.5,0.4,0.9,0.9,0.9H16c0.5,0,0.9-0.4,0.9-0.9V1.9C16.9,1.4,16.5,1,16,1 z"></path>
<path class="st0" d="M7.1,1h-5C1.6,1,1.2,1.4,1.2,1.9V7c0,0.5,0.4,0.9,0.9,0.9h5.1c0.5,0,0.9-0.4,0.9-0.9V1.9C8,1.4,7.6,1,7.1,1z M7.1,7h-5V1.9h5.1L7.1,7L7.1,7z"></path><path class="st0" d="M7.1,10.1h-5c-0.5,0-0.9,0.4-0.9,0.9V16c0,0.5,0.4,0.9,0.9,0.9h5.1c0.5,0,0.9-0.4,0.9-0.9V11 C8,10.5,7.6,10.1,7.1,10.1z"></path><path class="st0" d="M16,10.1h-5.1c-0.4,0-0.8,0.4-0.8,0.9V16c0,0.5,0.4,0.9,0.9,0.9H16c0.5,0,0.9-0.4,0.9-0.9v-5.1 C16.9,10.4,16.5,10.1,16,10.1z"></path>
</svg>