<svg xmlns="http://www.w3.org/2000/svg" viewBox="0 0 20 20" width="20" height="20" role="img" aria-hidden="true">
      <defs>
    <style>
      .fill {
        fill: #464646;
      }
    </style>
  </defs>
<path fill="var(--iconPrimary,#222)" d="M7.5 2.5h5v15h-5Z" opacity=".2"></path><path fill="var(--iconPrimary,#222)" d="M7.5 6.5a.75.75 0 0 0-.75.75V8.5a.75.75 0 0 0 1.5 0V7.25a.75.75 0 0 0-.75-.75M7.5 10.75a.75.75 0 0 0-.75.75v1.25a.75.75 0 0 0 1.5 0V11.5a.75.75 0 0 0-.75-.75M12.5 6.5a.75.75 0 0 0-.75.75V8.5a.75.75 0 0 0 1.5 0V7.25a.75.75 0 0 0-.75-.75M12.5 10.75a.75.75 0 0 0-.75.75v1.25a.75.75 0 0 0 1.5 0V11.5a.75.75 0 0 0-.75-.75"></path><path fill="var(--iconPrimary,#222)" d="M16.25 1.5H3.75C2.51 1.5 1.5 2.51 1.5 3.75v12.5c0 1.24 1.01 2.25 2.25 2.25h12.5c1.24 0 2.25-1.01 2.25-2.25V3.75c0-1.24-1.01-2.25-2.25-2.25M17 16.25c0 .413-.337.75-.75.75h-3v-1.25a.75.75 0 0 0-1.5 0V17h-3.5v-1.25a.75.75 0 0 0-1.5 0V17h-3a.75.75 0 0 1-.75-.75V3.75c0-.413.337-.75.75-.75h3v1.25a.75.75 0 0 0 1.5 0V3h3.5v1.25a.75.75 0 0 0 1.5 0V3h3c.413 0 .75.337.75.75Z"></path>
</svg>