<svg xmlns="http://www.w3.org/2000/svg" viewBox="0 0 20 20" width="20" height="20" role="img" aria-hidden="true">
      <defs>
    <style>
      .fill {
        fill: #464646;
      }
    </style>
  </defs>
<path fill="var(--iconPrimary, var(--lightningcss-light, rgb(41, 41, 41)) var(--lightningcss-dark, rgb(219, 219, 219)))" d="M9.995 18.25c-4.549 0-8.25-3.701-8.25-8.25s3.701-8.25 8.25-8.25c1.72 0 3.368.523 4.766 1.515.338.24.418.708.178 1.046-.24.337-.71.416-1.046.178-1.142-.81-2.49-1.239-3.898-1.239-3.722 0-6.75 3.028-6.75 6.75s3.028 6.75 6.75 6.75c1.217 0 2.41-.328 3.45-.948.357-.211.818-.096 1.03.26s.095.816-.26 1.029c-1.273.758-2.732 1.159-4.22 1.159"></path>
<path fill="var(--iconPrimary, var(--lightningcss-light, rgb(41, 41, 41)) var(--lightningcss-dark, rgb(219, 219, 219)))" d="m18.78 9.47-2.475-2.475c-.293-.293-.767-.293-1.06 0s-.293.768 0 1.06l1.194 1.195H9.765c-.414 0-.75.336-.75.75s.336.75.75.75h6.674l-1.194 1.194c-.293.293-.293.768 0 1.06.146.147.338.22.53.22s.384-.073.53-.22l2.475-2.474c.14-.14.22-.33.22-.53s-.08-.39-.22-.53"></path>
</svg>