<svg xmlns="http://www.w3.org/2000/svg" width="20" height="20" viewBox="0 0 20 20">
      <defs>
    <style>
      .fill {
        fill: #464646;
      }
    </style>
  </defs>
<circle cx="13.951" cy="14.539" r="1.25" fill="var(--iconPrimary, var(--lightningcss-light, rgb(41, 41, 41)) var(--lightningcss-dark, rgb(219, 219, 219)))"></circle><path d="M12.16 19.661c-.231 0-.465-.057-.676-.179l-.494-.28c-.616-.353-.864-1.133-.565-1.775l.302-.648c-.122-.174-.228-.357-.32-.548l-.713-.055c-.707-.055-1.264-.655-1.268-1.364l-.002-.568c-.004-.71.547-1.314 1.254-1.377l.71-.062c.046-.099.094-.193.146-.283s.108-.18.17-.269l-.308-.644c-.307-.64-.066-1.422.548-1.78l.489-.286c.622-.366 1.405-.191 1.82.397l.41.585c.21-.02.421-.02.634-.003l.405-.588c.402-.584 1.198-.769 1.814-.416l.494.28c.616.353.864 1.133.565 1.775l-.302.648c.122.175.228.357.32.548l.713.055c.707.055 1.264.655 1.268 1.364l.002.568c.004.71-.547 1.314-1.254 1.377l-.71.062c-.046.098-.094.193-.146.283-.051.09-.108.18-.17.27l.309.643c.306.64.065 1.422-.549 1.78l-.489.286c-.624.364-1.405.191-1.82-.397l-.41-.585c-.21.017-.422.018-.634.003l-.405.588c-.263.384-.697.595-1.138.595Zm-.034-9.057c-.021 0-.043.006-.063.018l-.489.286c-.056.033-.078.105-.05.162l.472.989c.106.222.071.486-.088.673-.106.125-.204.261-.288.41-.086.148-.152.302-.207.458-.081.232-.29.394-.535.416l-1.09.096c-.066.006-.115.06-.114.126l.002.568c0 .065.05.119.115.124l1.093.086c.245.02.456.18.54.412.112.315.282.604.503.861.16.186.198.45.094.672l-.463.993c-.027.059-.004.129.052.161l.493.281c.058.034.128.017.165-.037l.62-.903c.14-.202.386-.306.627-.262.333.06.67.06.997-.004.244-.046.488.054.63.254l.629.897c.037.054.109.071.166.037l.489-.286c.056-.033.078-.105.05-.162l-.472-.989c-.106-.222-.071-.486.088-.673.106-.125.204-.261.288-.41.086-.148.152-.302.207-.458.081-.232.29-.394.535-.416l1.09-.096c.066-.006.115-.06.114-.126l-.002-.568c0-.065-.05-.119-.116-.124l-1.092-.086c-.245-.02-.456-.18-.54-.412-.112-.315-.282-.604-.503-.861-.16-.186-.198-.45-.094-.672l.463-.993c.027-.059.004-.129-.052-.161l-.493-.281c-.058-.035-.129-.018-.165.037l-.62.903c-.14.203-.38.309-.627.262-.333-.06-.669-.06-.997.004-.242.048-.488-.053-.63-.254l-.629-.897c-.024-.035-.063-.055-.103-.055Z" fill="var(--iconPrimary, var(--lightningcss-light, rgb(41, 41, 41)) var(--lightningcss-dark, rgb(219, 219, 219)))"></path><path d="M15.75 2h-12C2.51 2 1.5 3.01 1.5 4.25v11.5C1.5 16.99 2.51 18 3.75 18h3.14c.414 0 .75-.336.75-.75s-.336-.75-.75-.75H3.75c-.414 0-.75-.337-.75-.75V4.25c0-.413.336-.75.75-.75H6.5v8c0 .414.336.75.75.75s.75-.336.75-.75v-8h3.5V7c0 .414.336.75.75.75S13 7.414 13 7V3.5h2.75c.414 0 .75.337.75.75v3.086c0 .414.336.75.75.75s.75-.336.75-.75V4.25C18 3.01 16.99 2 15.75 2Z" fill="var(--iconPrimary, var(--lightningcss-light, rgb(41, 41, 41)) var(--lightningcss-dark, rgb(219, 219, 219)))"></path>
</svg>