<button class="ntVziG_spectrum-ActionButton ntVziG_spectrum-BaseButton ntVziG_i18nFontFamily ntVziG_spectrum-FocusRing ntVziG_spectrum-FocusRing-ring ntVziG_spectrum-ActionButton--quiet _9ragMG_spectrum-ActionGroup-item" type="button" tabindex="0" role="radio" aria-checked="false" data-testid="acr-rail-button-assetsMktoExperienceManager" aria-label="assetsMktoExperienceManager"><svg viewBox="0 0 18 18" class="wBx8DG_spectrum-Icon wBx8DG_spectrum-Icon--sizeS ntVziG_spectrum-Icon" focusable="false" aria-hidden="true" role="img"><rect x="3" y="4" width="12" height="4"></rect><rect x="3" y="10" width="3" height="3"></rect><path d="M16,14,7,15H1.5c-.27637,0-.5-.22363-.5-.5V2.5c0-.27637.22363-.5.5-.5h15c.27637,0,.5.22363.5.5v6.5h-1V3H2v11h5"></path><g><g><path d="M17.72222,10h-9.44444c-.1534,0-.27778.1194-.27778.26667v7.46667c0,.14728.12438.26667.27778.26667h9.44444c.1534,0,.27778-.11938.27778-.26667v-7.46667c0-.14727-.12438-.26667-.27778-.26667ZM9,11h8v5l-1.31371-1.20016c-.23953-.22995-.62792-.22995-.86745,0l-.94191.90425-2.3175-2.22487c-.2396-.22995-.62798-.22995-.86751,0l-1.69192,1.78426v-4.26348Z"></path><path d="M15.33541,13.37933c.47519,0,.86043-.36981.86043-.82599s-.38523-.82601-.86043-.82601-.86039.36982-.86039.82601.3852.82599.86039.82599Z"></path></g><g><path d="M17.72222,10h-9.44444c-.1534,0-.27778.1194-.27778.26667v7.46667c0,.14728.12438.26667.27778.26667h9.44444c.1534,0,.27778-.11938.27778-.26667v-7.46667c0-.14727-.12438-.26667-.27778-.26667ZM9,11h8v5l-1.31371-1.20016c-.23953-.22995-.62792-.22995-.86745,0l-.94191.90425-2.3175-2.22487c-.2396-.22995-.62798-.22995-.86751,0l-1.69192,1.78426v-4.26348Z"></path><path d="M15.33541,13.37933c.47519,0,.86043-.36981.86043-.82599s-.38523-.82601-.86043-.82601-.86039.36982-.86039.82601.3852.82599.86039.82599Z"></path></g></g></svg>