<?xml version="1.0" encoding="UTF-8"?>
<svg id="I_C_O_N_S" data-name="I C O N S" xmlns="http://www.w3.org/2000/svg" width="18" height="18" viewBox="0 0 18 18">
  <defs>
    <style>
      .fill {
        fill: #444444;
      }

      .fill, .cls-1 {
        stroke-width: 0px;
      }

      .cls-1 {
        fill: #444444;
      }
    </style>
  </defs>
  <rect class="fill" x="3" y="4" width="12" height="4"/>
  <rect class="fill" x="3" y="10" width="3" height="3"/>
  <path class="fill" d="M16,14,7,15H1.5c-.27637,0-.5-.22363-.5-.5V2.5c0-.27637.22363-.5.5-.5h15c.27637,0,.5.22363.5.5v6.5h-1V3H2v11h5"/>
  <g>
    <g>
      <path class="fill" d="M17.72222,10h-9.44444c-.1534,0-.27778.1194-.27778.26667v7.46667c0,.14728.12438.26667.27778.26667h9.44444c.1534,0,.27778-.11938.27778-.26667v-7.46667c0-.14727-.12438-.26667-.27778-.26667ZM9,11h8v5l-1.31371-1.20016c-.23953-.22995-.62792-.22995-.86745,0l-.94191.90425-2.3175-2.22487c-.2396-.22995-.62798-.22995-.86751,0l-1.69192,1.78426v-4.26348Z"/>
      <path class="fill" d="M15.33541,13.37933c.47519,0,.86043-.36981.86043-.82599s-.38523-.82601-.86043-.82601-.86039.36982-.86039.82601.3852.82599.86039.82599Z"/>
    </g>
    <g>
      <path class="cls-1" d="M17.72222,10h-9.44444c-.1534,0-.27778.1194-.27778.26667v7.46667c0,.14728.12438.26667.27778.26667h9.44444c.1534,0,.27778-.11938.27778-.26667v-7.46667c0-.14727-.12438-.26667-.27778-.26667ZM9,11h8v5l-1.31371-1.20016c-.23953-.22995-.62792-.22995-.86745,0l-.94191.90425-2.3175-2.22487c-.2396-.22995-.62798-.22995-.86751,0l-1.69192,1.78426v-4.26348Z"/>
      <path class="cls-1" d="M15.33541,13.37933c.47519,0,.86043-.36981.86043-.82599s-.38523-.82601-.86043-.82601-.86039.36982-.86039.82601.3852.82599.86039.82599Z"/>
    </g>
  </g>
</svg>