<svg xmlns="http://www.w3.org/2000/svg" height="18" viewBox="0 0 18 18" width="18">
  <defs>
    <style>
      .fill {
        fill: #464646;
      }
    </style>
  </defs>
<path id="iconFill" fill-rule="evenodd" clip-rule="evenodd" d="M14.9341 0.269897L14.3432 4.74518C14.2925 5.1288 14.4186 5.5147 14.686 5.79442L17.5316 8.77151L13.4213 8.50601C13.0353 8.48108 12.6587 8.63255 12.3975 8.91788L9.34896 12.2473L9.93468 7.76778C9.98473 7.38494 9.85885 7.00002 9.59224 6.72074L6.75098 3.74441L10.8567 4.00855C11.2421 4.03334 11.618 3.88236 11.8792 3.59786L14.9341 0.269897Z"></path><path id="iconFill_2" fill-rule="evenodd" clip-rule="evenodd" d="M6.86006 10.1641L6.52175 12.7262C6.47509 13.0796 6.59123 13.4351 6.83754 13.6928L8.4553 15.3852L6.11852 15.2343C5.76288 15.2113 5.416 15.3509 5.17533 15.6137L3.43 17.5199L3.7654 14.9547C3.81151 14.602 3.69554 14.2474 3.44994 13.9902L1.83447 12.2979L4.16884 12.4481C4.52386 12.4709 4.87014 12.3318 5.11072 12.0697L6.86006 10.1641Z"></path></svg>