<?xml version="1.0" encoding="UTF-8"?>
<svg id="Layer_1" xmlns="http://www.w3.org/2000/svg" viewBox="0 0 4103.73 2366.72">
  <defs>
    <style>
      .cls-1 {
        fill: #010101;
      }

      .cls-2 {
        fill: #f6b916;
      }

      .cls-3 {
        fill: #231f20;
      }

      .cls-4 {
        fill: #80185e;
      }

      .cls-5 {
        fill: #ff3098;
      }

      .cls-6 {
        fill: #f7e800;
      }

      .cls-7 {
        fill: #fff;
      }

      .cls-8 {
        fill: #f3ffff;
      }

      .cls-9 {
        fill: #00d8ef;
      }

      .cls-10 {
        fill: #0182f7;
      }

      .cls-11 {
        fill: #27a2e3;
      }

      .cls-12 {
        fill: #a7278a;
      }

      .cls-13 {
        fill: #415f1e;
      }

      .cls-14 {
        fill: #e6e7e8;
      }

      .cls-15 {
        fill: #0461b2;
      }

      .cls-16 {
        fill: #f16f4c;
      }
    </style>
  </defs>
  <rect class="cls-14" width="4103.73" height="2366.72"/>
  <g>
    <path class="cls-7" d="M1062.67,1807.28c-7.19,28.59-33.07,49.76-63.9,49.76h-281.61c-36.4,0-65.91-29.51-65.91-65.91v-103l70.09-70.09c6.2-6.2,16.25-6.2,22.45,0l109.89,109.89,53.6-53.6c6.2-6.2,16.25-6.2,22.44,0l132.95,132.95Z"/>
    <path class="cls-3" d="M998.77,1456.4h-281.61c-36.4,0-65.91,29.51-65.91,65.91v165.82l70.09-70.09c6.2-6.2,16.25-6.2,22.45,0l109.89,109.89,53.6-53.6c6.2-6.2,16.25-6.2,22.44,0l132.95,132.95c1.31-5.17,2-10.58,2-16.15v-268.82c0-36.4-29.5-65.91-65.9-65.91ZM973.93,1577.34c-8.3,0-15.85-3.4-21.32-8.87-5.47-5.47-8.87-13.03-8.87-21.33s3.4-15.86,8.87-21.33,13.02-8.87,21.32-8.87,15.85,3.4,21.33,8.87c5.47,5.47,8.87,13.03,8.87,21.33,0,16.61-13.59,30.2-30.2,30.2Z"/>
  </g>
  <g>
    <path class="cls-7" d="M1858.61,783.52c-7.19,28.59-33.07,49.76-63.9,49.76h-281.61c-36.4,0-65.91-29.51-65.91-65.91v-103l70.09-70.09c6.2-6.2,16.25-6.2,22.45,0l109.89,109.89,53.6-53.6c6.2-6.2,16.25-6.2,22.44,0l132.95,132.95Z"/>
    <path class="cls-9" d="M1794.71,432.64h-281.61c-36.4,0-65.91,29.51-65.91,65.91v165.82l70.09-70.09c6.2-6.2,16.25-6.2,22.45,0l109.89,109.89,53.6-53.6c6.2-6.2,16.25-6.2,22.44,0l132.95,132.95c1.31-5.17,2-10.58,2-16.15v-268.82c0-36.4-29.5-65.91-65.9-65.91ZM1769.87,553.58c-8.3,0-15.85-3.4-21.32-8.87-5.47-5.47-8.87-13.03-8.87-21.33s3.4-15.86,8.87-21.33c5.47-5.47,13.02-8.87,21.32-8.87s15.85,3.4,21.33,8.87c5.47,5.47,8.87,13.03,8.87,21.33,0,16.61-13.59,30.2-30.2,30.2Z"/>
    <path class="cls-7" d="M1800.07,523.38c0,16.61-13.59,30.2-30.2,30.2-8.3,0-15.85-3.4-21.32-8.87-5.47-5.47-8.87-13.03-8.87-21.33s3.4-15.86,8.87-21.33c5.47-5.47,13.02-8.87,21.32-8.87s15.85,3.4,21.33,8.87c5.47,5.47,8.87,13.03,8.87,21.33Z"/>
  </g>
  <g>
    <path class="cls-4" d="M2654.55,1807.28c-7.19,28.59-33.07,49.76-63.9,49.76h-281.61c-36.4,0-65.91-29.51-65.91-65.91v-103l70.09-70.09c6.2-6.2,16.25-6.2,22.45,0l109.89,109.89,53.6-53.6c6.2-6.2,16.25-6.2,22.44,0l132.95,132.95Z"/>
    <path class="cls-12" d="M2590.65,1456.4h-281.61c-36.4,0-65.91,29.51-65.91,65.91v165.82l70.09-70.09c6.2-6.2,16.25-6.2,22.45,0l109.89,109.89,53.6-53.6c6.2-6.2,16.25-6.2,22.44,0l132.95,132.95c1.31-5.17,2-10.58,2-16.15v-268.82c0-36.4-29.5-65.91-65.9-65.91ZM2565.81,1577.34c-8.3,0-15.85-3.4-21.32-8.87-5.47-5.47-8.87-13.03-8.87-21.33s3.4-15.86,8.87-21.33c5.47-5.47,13.02-8.87,21.32-8.87s15.85,3.4,21.33,8.87c5.47,5.47,8.87,13.03,8.87,21.33,0,16.61-13.59,30.2-30.2,30.2Z"/>
    <path class="cls-7" d="M2596.01,1547.14c0,16.61-13.59,30.2-30.2,30.2-8.3,0-15.85-3.4-21.32-8.87-5.47-5.47-8.87-13.03-8.87-21.33s3.4-15.86,8.87-21.33c5.47-5.47,13.02-8.87,21.32-8.87s15.85,3.4,21.33,8.87c5.47,5.47,8.87,13.03,8.87,21.33Z"/>
  </g>
  <g>
    <path class="cls-5" d="M3450.48,1807.28c-7.19,28.59-33.07,49.76-63.9,49.76h-281.61c-36.4,0-65.91-29.51-65.91-65.91v-103l70.09-70.09c6.2-6.2,16.25-6.2,22.45,0l109.89,109.89,53.6-53.6c6.2-6.2,16.25-6.2,22.44,0l132.95,132.95Z"/>
    <path class="cls-7" d="M3386.58,1456.4h-281.61c-36.4,0-65.91,29.51-65.91,65.91v165.82l70.09-70.09c6.2-6.2,16.25-6.2,22.45,0l109.89,109.89,53.6-53.6c6.2-6.2,16.25-6.2,22.44,0l132.95,132.95c1.31-5.17,2-10.58,2-16.15v-268.82c0-36.4-29.5-65.91-65.9-65.91ZM3361.74,1577.34c-8.3,0-15.85-3.4-21.32-8.87s-8.87-13.03-8.87-21.33,3.4-15.86,8.87-21.33c5.47-5.47,13.02-8.87,21.32-8.87s15.85,3.4,21.33,8.87c5.47,5.47,8.87,13.03,8.87,21.33,0,16.61-13.59,30.2-30.2,30.2Z"/>
    <path class="cls-5" d="M3391.94,1547.14c0,16.61-13.59,30.2-30.2,30.2-8.3,0-15.85-3.4-21.32-8.87s-8.87-13.03-8.87-21.33,3.4-15.86,8.87-21.33c5.47-5.47,13.02-8.87,21.32-8.87s15.85,3.4,21.33,8.87c5.47,5.47,8.87,13.03,8.87,21.33Z"/>
  </g>
  <g>
    <path class="cls-13" d="M1858.61,1807.28c-7.19,28.59-33.07,49.76-63.9,49.76h-281.61c-36.4,0-65.91-29.51-65.91-65.91v-103l70.09-70.09c6.2-6.2,16.25-6.2,22.45,0l109.89,109.89,53.6-53.6c6.2-6.2,16.25-6.2,22.44,0l132.95,132.95Z"/>
    <path class="cls-16" d="M1794.71,1456.4h-281.61c-36.4,0-65.91,29.51-65.91,65.91v165.82l70.09-70.09c6.2-6.2,16.25-6.2,22.45,0l109.89,109.89,53.6-53.6c6.2-6.2,16.25-6.2,22.44,0l132.95,132.95c1.31-5.17,2-10.58,2-16.15v-268.82c0-36.4-29.5-65.91-65.9-65.91ZM1769.87,1577.34c-8.3,0-15.85-3.4-21.32-8.87-5.47-5.47-8.87-13.03-8.87-21.33s3.4-15.86,8.87-21.33,13.02-8.87,21.32-8.87,15.85,3.4,21.33,8.87c5.47,5.47,8.87,13.03,8.87,21.33,0,16.61-13.59,30.2-30.2,30.2Z"/>
    <path class="cls-8" d="M1800.07,1547.14c0,16.61-13.59,30.2-30.2,30.2-8.3,0-15.85-3.4-21.32-8.87-5.47-5.47-8.87-13.03-8.87-21.33s3.4-15.86,8.87-21.33,13.02-8.87,21.32-8.87,15.85,3.4,21.33,8.87c5.47,5.47,8.87,13.03,8.87,21.33Z"/>
  </g>
  <g>
    <path class="cls-1" d="M1062.67,783.52c-7.19,28.59-33.07,49.76-63.9,49.76h-281.61c-36.4,0-65.91-29.51-65.91-65.91v-103l70.09-70.09c6.2-6.2,16.25-6.2,22.45,0l109.89,109.89,53.6-53.6c6.2-6.2,16.25-6.2,22.44,0l132.95,132.95Z"/>
    <path class="cls-2" d="M998.77,432.64h-281.61c-36.4,0-65.91,29.51-65.91,65.91v165.82l70.09-70.09c6.2-6.2,16.25-6.2,22.45,0l109.89,109.89,53.6-53.6c6.2-6.2,16.25-6.2,22.44,0l132.95,132.95c1.31-5.17,2-10.58,2-16.15v-268.82c0-36.4-29.5-65.91-65.9-65.91ZM973.93,553.58c-8.3,0-15.85-3.4-21.32-8.87-5.47-5.47-8.87-13.03-8.87-21.33s3.4-15.86,8.87-21.33c5.47-5.47,13.02-8.87,21.32-8.87s15.85,3.4,21.33,8.87c5.47,5.47,8.87,13.03,8.87,21.33,0,16.61-13.59,30.2-30.2,30.2Z"/>
    <path class="cls-8" d="M1004.13,523.38c0,16.61-13.59,30.2-30.2,30.2-8.3,0-15.85-3.4-21.32-8.87-5.47-5.47-8.87-13.03-8.87-21.33s3.4-15.86,8.87-21.33c5.47-5.47,13.02-8.87,21.32-8.87s15.85,3.4,21.33,8.87c5.47,5.47,8.87,13.03,8.87,21.33Z"/>
  </g>
  <g>
    <path class="cls-6" d="M2654.55,783.52c-7.19,28.59-33.07,49.76-63.9,49.76h-281.61c-36.4,0-65.91-29.51-65.91-65.91v-103l70.09-70.09c6.2-6.2,16.25-6.2,22.45,0l109.89,109.89,53.6-53.6c6.2-6.2,16.25-6.2,22.44,0l132.95,132.95Z"/>
    <path class="cls-10" d="M2590.65,432.64h-281.61c-36.4,0-65.91,29.51-65.91,65.91v165.82l70.09-70.09c6.2-6.2,16.25-6.2,22.45,0l109.89,109.89,53.6-53.6c6.2-6.2,16.25-6.2,22.44,0l132.95,132.95c1.31-5.17,2-10.58,2-16.15v-268.82c0-36.4-29.5-65.91-65.9-65.91ZM2565.81,553.58c-8.3,0-15.85-3.4-21.32-8.87-5.47-5.47-8.87-13.03-8.87-21.33s3.4-15.86,8.87-21.33,13.02-8.87,21.32-8.87,15.85,3.4,21.33,8.87c5.47,5.47,8.87,13.03,8.87,21.33,0,16.61-13.59,30.2-30.2,30.2Z"/>
    <path class="cls-8" d="M2596.01,523.38c0,16.61-13.59,30.2-30.2,30.2-8.3,0-15.85-3.4-21.32-8.87-5.47-5.47-8.87-13.03-8.87-21.33s3.4-15.86,8.87-21.33,13.02-8.87,21.32-8.87,15.85,3.4,21.33,8.87c5.47,5.47,8.87,13.03,8.87,21.33Z"/>
  </g>
  <g>
    <path class="cls-15" d="M3450.48,783.52c-7.19,28.59-33.07,49.76-63.9,49.76h-281.61c-36.4,0-65.91-29.51-65.91-65.91v-103l70.09-70.09c6.2-6.2,16.25-6.2,22.45,0l109.89,109.89,53.6-53.6c6.2-6.2,16.25-6.2,22.44,0l132.95,132.95Z"/>
    <path class="cls-11" d="M3386.58,432.64h-281.61c-36.4,0-65.91,29.51-65.91,65.91v165.82l70.09-70.09c6.2-6.2,16.25-6.2,22.45,0l109.89,109.89,53.6-53.6c6.2-6.2,16.25-6.2,22.44,0l132.95,132.95c1.31-5.17,2-10.58,2-16.15v-268.82c0-36.4-29.5-65.91-65.9-65.91ZM3361.74,553.58c-8.3,0-15.85-3.4-21.32-8.87-5.47-5.47-8.87-13.03-8.87-21.33s3.4-15.86,8.87-21.33c5.47-5.47,13.02-8.87,21.32-8.87s15.85,3.4,21.33,8.87c5.47,5.47,8.87,13.03,8.87,21.33,0,16.61-13.59,30.2-30.2,30.2Z"/>
    <path class="cls-8" d="M3391.94,523.38c0,16.61-13.59,30.2-30.2,30.2-8.3,0-15.85-3.4-21.32-8.87-5.47-5.47-8.87-13.03-8.87-21.33s3.4-15.86,8.87-21.33c5.47-5.47,13.02-8.87,21.32-8.87s15.85,3.4,21.33,8.87c5.47,5.47,8.87,13.03,8.87,21.33Z"/>
  </g>
</svg>