<?xml version="1.0" encoding="UTF-8"?>
<svg id="Layer_1" xmlns="http://www.w3.org/2000/svg" xmlns:i="http://ns.adobe.com/AdobeIllustrator/10.0/" version="1.1" viewBox="0 0 17.9 16.7">
  <!-- Generator: Adobe Illustrator 30.1.0, SVG Export Plug-In . SVG Version: 2.1.1 Build 136)  -->
  <defs>
    <style>
      .st0 {
        fill: #464646;
        fill-opacity: 0;
      }

      .st1 {
        fill: #464646;
        fill-rule: evenodd;
      }
    </style>
  </defs>
  <rect id="Canvas" class="st0" x="0" width="9.5" height="8.8"/>
  <path class="st1" d="M10,2.9h-1.1c-.3,0-.5.2-.5.5v5.2c0,.1,0,.3.2.3l2.9,2.8c.2.2.5.2.7,0l.7-.7c.2-.2.2-.5,0-.7l-2.4-2.3V3.4c0-.3-.2-.5-.5-.5Z"/>
  <path class="st1" d="M9.5,1c-2.2,0-4.3.8-5.9,2.2-1.1,1-1.9,2.3-2.1,3.7H.3C.1,6.9,0,7,0,7.1c0,0,0,.1,0,.2l1.9,2c0,0,.2,0,.3,0l1.9-2s0-.1,0-.2c0-.1-.1-.2-.3-.2h-1.3c.3-1.2.9-2.2,1.8-3.1,3-2.6,7.6-2.4,10.4.3,2.8,2.8,2.6,7.1-.4,9.7-2.8,2.5-7.2,2.5-10,0-.1,0-.3,0-.4,0l-.4.3c-.1,0-.1.3,0,.4,0,0,0,0,0,0,3.4,3,8.7,2.8,11.9-.4,3.2-3.2,3-8.1-.4-11.1-1.6-1.4-3.6-2.1-5.7-2.1Z"/>
  <metadata>
    <i:aipgfRef id="adobe_illustrator_pgf"/>
    <i:aipgf id="adobe_illustrator_pgf" i:pgfEncoding="zstd/base64" i:pgfVersion="24">
    </i:aipgf>
  </metadata>
</svg>