<svg xmlns="http://www.w3.org/2000/svg" height="18" viewBox="0 0 18 18" width="18">
  <defs>
    <style>
      .fill {
        fill: #222222;
      }
  </style>
  </defs>
    <path d="M11.5,7c-.89,0-1.76.26-2.5.76-.74.49-1.32,1.2-1.66,2.02-.34.82-.43,1.73-.26,2.6.17.87.6,1.67,1.23,2.3.63.63,1.43,1.06,2.3,1.23.87.17,1.78.08,2.6-.26.82-.34,1.52-.92,2.02-1.66.49-.74.76-1.61.76-2.5,0-1.19-.47-2.34-1.32-3.18-.84-.84-1.99-1.32-3.18-1.32ZM14.45,13.2s.07.11.07.18-.03.13-.07.18l-.89.89s-.11.07-.18.07-.13-.03-.18-.07l-1.7-1.7-1.7,1.7s-.11.07-.18.07-.13-.03-.18-.07l-.89-.89s-.07-.11-.07-.18.03-.13.07-.18l1.7-1.7-1.7-1.7s-.07-.11-.07-.18.03-.13.07-.18l.89-.89s.11-.07.18-.07.13.03.18.07l1.7,1.7,1.7-1.7s.11-.07.18-.07.13.03.18.07l.89.89s.07.11.07.18-.03.13-.07.18l-1.7,1.7,1.7,1.7Z"></path><path d="M14,1.98c-.03.73-.32,1.3-.9,1.71-.6.42-1.2.85-1.8,1.27h0c-.31.21-.61.43-.91.64-1.63.31-3.02,1.27-3.9,2.6-1.05-1.05-2.1-2.1-3.14-3.15-.2-.21-.2-.37,0-.57.1-.1.2-.2.3-.3.19-.19.37-.37.56-.56.57-.59,1.55-.59,2.11,0,.13.14.27.27.4.41h0s.1.1.15.15c.39.39.9.34,1.22-.1.25-.36.51-.72.76-1.09h0c.49-.7.98-1.4,1.47-2.1C10.74.28,11.34-.02,12.09,0c.93.03,1.76.79,1.88,1.71,0,.07.02.14.02.2v.07ZM6.15,8.78l-2.38-2.38c-.06-.06-.13-.13-.19-.19-.15-.15-.29-.29-.44-.44-.18-.18-.35-.18-.52,0l-.34.34h0c-.63.63-1.26,1.26-1.89,1.89-.44.45-.52,1.07-.19,1.59.12.18.27.33.43.48h0c.05.05.11.11.16.16.19.2.3.21.54.08.16-.09.32-.18.49-.27.16-.09.32-.18.49-.27,0,0,0,0,.01.01h0c-.07.14-.14.26-.21.39-.12.21-.23.42-.35.63-.11.2-.1.32.06.48l.15.15h0c.73.73,1.45,1.46,2.18,2.18.32.31.7.45,1.14.38.23-.04.43-.14.6-.28-.27-.68-.41-1.42-.41-2.2,0-.98.24-1.91.65-2.72ZM12.09,1.28c-.35,0-.63.28-.63.63,0,.35.28.63.63.64.35,0,.63-.28.63-.63,0-.35-.28-.63-.63-.63Z"></path></svg>