<svg xmlns="http://www.w3.org/2000/svg" height="18" viewBox="0 0 18 18" width="18">
  <defs>
    <style>
      .fill {
        fill: #222222;
      }
    </style>
  </defs>
  <polygon points="7 1 2 6 7 6 7 1"></polygon>
  <path d="M6.52002,15h-2.27002c-.13806,0-.25-.11194-.25-.25v-2.5c0-.13806.11194-.25.25-.25h2.32324c.07471-.31604.22876-.62164.46582-.87402.04932-.05212.11426-.08014.16821-.12598h-2.95728c-.13806,0-.25-.11194-.25-.25v-1.5c0-.13806.11194-.25.25-.25h3.7373c.80762-1.95978,2.69946-3.40503,4.9707-3.49902h.12305c.31519.013.61963.06268.91895.12531V1.5c0-.27618-.22388-.5-.5-.5h-5.5v5.5c0,.27612-.22388.5-.5.5H2v9.5c0,.27612.22388.5.5.5h4.02039l-.00037-2Z"></path>
  <path d="M17.59968,12.024h-.622v-.738c.08681-2.27513-1.68317-4.19178-3.958-4.286-2.27483.09422-4.04481,2.01087-3.958,4.286v.738h-.642c-.22799.00702-.40711.19754-.40008.42552.00003.00082.00005.00165.00008.00248v5.119c-.00894.22792.16857.41993.39649.42888.00117.00005.00234.00009.00351.00012h9.18c.22799-.007.40713-.1975.40012-.42549-.00003-.00117-.00008-.00234-.00012-.00351v-5.119c.00839-.22794-.16959-.41952-.39753-.42792-.00082-.00003-.00165-.00006-.00247-.00008ZM10.97768,11.286c0-1.42.73-2.572,2.042-2.572s2.042,1.152,2.042,2.572v.738h-4.084v-.738ZM13.81168,15.666v.905c.00841.22849-.17.42054-.39849.42895-.0005.00002-.00101.00004-.00151.00005h-.792c-.22852-.00758-.40763-.19897-.40005-.42749.00002-.0005.00003-.00101.00005-.00151v-.905c-.2564-.25031-.40067-.59368-.4-.952-.05389-.65611.43431-1.23169,1.09043-1.28557.65611-.05389,1.23168.43431,1.28557,1.09043.00533.06494.00533.13021,0,.19515.00489.356-.13347.69903-.384.952Z"></path>
</svg>