<svg xmlns="http://www.w3.org/2000/svg" height="18" viewBox="0 0 18 18" width="18">
  <defs>
    <style>
      .fill {
        fill: #222222;
      }
    </style>
  </defs>
  <path d="M13.75,5.2506h-4.5815c-.26971-.92149-1.23537-1.44986-2.15686-1.18015-.56883.16649-1.01365.61131-1.18015,1.18015h-1.5815c-.13807,0-.25.11193-.25.25v.5c0,.13807.11193.25.25.25h1.5815c.26971.92149,1.23537,1.44986,2.15686,1.18015.56883-.16649,1.01365-.61131,1.18015-1.18015h4.5815c.13807,0,.25-.11193.25-.25v-.5c0-.13807-.11193-.25-.25-.25ZM7.5,6.5006c-.41421,0-.75-.33579-.75-.75s.33579-.75.75-.75.75.33579.75.75-.33579.75-.75.75Z"></path><path d="M9.4873,11.66309l.72314-.72321c-.26868-.11407-.45728-.38019-.45728-.69049,0-.41425.33582-.75.75-.75.3103,0,.57642.18854.69055.45728l.72119-.72119c-.41736-.5874-1.16968-.88007-1.90002-.66626-.56885.1665-1.01367.61133-1.18018,1.18018h-4.58154c-.13806,0-.25.11194-.25.25v.5c0,.13806.11194.25.25.25h4.58154c.11267.38507.35083.6955.65259.9137Z"></path><path d="M17.86089,10.40072l-2.16174-2.16174c-.08853-.08862-.2469-.1322-.33929-.1322s-.24998.05475-.34763.15234l-5.61816,5.61821c-.04404.04395-.0764.09824-.09416.15784l-1.22164,3.66976c-.04271.14117.17216.31897.29361.31897.0081,0,.01579-.00073.02298-.00238.10364-.0238,3.13024-1.05923,3.67201-1.2221.05937-.01785.11151-.04953.15536-.09338l5.61843-5.61848c.09334-.09338.1441-.2124.15161-.33124.00815-.12982-.03529-.25946-.13138-.35559ZM9.05802,17.04464l.98888-2.75951,1.76994,1.7655c-.81024.24353-2.05881.78508-2.75882.99401Z"></path><path d="M7.73096,14H3V2h12v4.6452c.11987-.02411.24072-.03876.35938-.03876.21777,0,.43384.04535.64062.1156V1.5c0-.27618-.22388-.5-.5-.5H2.5c-.27612,0-.5.22382-.5.5v13c0,.27612.22388.5.5.5h4.89807l.33289-1Z"></path>
</svg>

