
<svg height="18" viewBox="0 0 18 18" width="18" xmlns="http://www.w3.org/2000/svg"><path d="m9.74512,11.88281c-.13281,0-.26465-.03613-.38379-.10742-.22607-.13477-.36133-.37402-.36133-.63867v-2.05273c-1.48291.02246-2.75439.37109-4.24561,1.25293-.15381.09082-.34619.09375-.50195.00391-.15625-.08887-.25244-.25488-.25244-.43457V2.32422c0-.08887.02393-.17676.06885-.25293C5.1333.25781,9.57666.02832,11.55322.92676c.26318.11621.43555.38672.43555.68652v.99805l.24561.50586-.17822-.4668c2.1001-.80273,4.05127-.29883,4.70947.29297.1499.13184.23438.3252.23438.54199v6.8125c0,.22852-.10156.43945-.2793.58008-.17578.14062-.40186.19141-.62256.1377-.42236-.09863-1.19678-.28125-1.80664-.28125-1.47461,0-2.8833.35547-4.1875,1.05664-.11328.06055-.23633.0918-.35889.0918Zm-.79639-3.7998c.18945,0,.38184.00586.57861.0166.26514.01465.47266.2334.47266.49902v2.12207c1.34668-.6543,2.78857-.98633,4.2915-.98633.5791,0,1.23535.12695,1.7085.23242V3.61621c-.48828-.30566-1.93945-.65918-3.5874-.03223-.00049,0-.00049.00098-.00049.00098-.32422.12207-.68896.08008-.97363-.11621-.28174-.19434-.44971-.51465-.44971-.85742v-.83789c-1.70947-.66602-5.15527-.3916-5.98877.70215v6.58496c1.3335-.67773,2.54932-.97754,3.94873-.97754Zm7.1499-4.39453c.00098.00098.00195.00195.00293.00195-.00098,0-.00195-.00098-.00293-.00195Zm-4.9585-1.85156c.00146.00098.00244.00098.00391.00195-.00098,0-.00244-.00098-.00391-.00195Z" stroke-width="0"></path><rect height="17" rx=".25" ry=".25" stroke-width="0" width="2" x="1" y="1"></rect></svg>